<mxfile host="app.diagrams.net" modified="2021-09-02T01:57:07.889Z" agent="5.0 (X11; Linux x86_64) AppleWebKit/537.36 (KHTML, like Gecko) Chrome/81.0.4044.138 Safari/537.36" etag="h_o1ODLfZkoiiHBJqNDP" version="15.0.4" type="github">
  <diagram id="19BO0YPX0hd9bhDFKlXe" name="第 1 页">
    <mxGraphModel dx="1373" dy="774" grid="1" gridSize="10" guides="1" tooltips="1" connect="1" arrows="1" fold="1" page="1" pageScale="1" pageWidth="827" pageHeight="1169" math="0" shadow="0">
      <root>
        <mxCell id="0" />
        <mxCell id="1" parent="0" />
        <mxCell id="qBcfan_NChV7agnDNDgU-2" value="小程序" style="swimlane;fontStyle=1;align=center;verticalAlign=top;childLayout=stackLayout;horizontal=1;startSize=26;horizontalStack=0;resizeParent=1;resizeParentMax=0;resizeLast=0;collapsible=1;marginBottom=0;fillColor=#dae8fc;strokeColor=#6c8ebf;" parent="1" vertex="1">
          <mxGeometry x="250" y="60" width="210" height="120" as="geometry">
            <mxRectangle x="300" y="60" width="100" height="26" as="alternateBounds" />
          </mxGeometry>
        </mxCell>
        <mxCell id="RIxWFfnTcLnGSPMHf-IP-5" style="edgeStyle=orthogonalEdgeStyle;rounded=0;orthogonalLoop=1;jettySize=auto;html=1;exitX=1;exitY=0.5;exitDx=0;exitDy=0;" edge="1" parent="qBcfan_NChV7agnDNDgU-2" source="qBcfan_NChV7agnDNDgU-3" target="RIxWFfnTcLnGSPMHf-IP-1">
          <mxGeometry relative="1" as="geometry" />
        </mxCell>
        <mxCell id="RIxWFfnTcLnGSPMHf-IP-6" value="未登录" style="edgeLabel;html=1;align=center;verticalAlign=middle;resizable=0;points=[];" vertex="1" connectable="0" parent="RIxWFfnTcLnGSPMHf-IP-5">
          <mxGeometry x="-0.2245" y="-1" relative="1" as="geometry">
            <mxPoint as="offset" />
          </mxGeometry>
        </mxCell>
        <mxCell id="qBcfan_NChV7agnDNDgU-3" value="(1) wx.checkSession()验证登录状态" style="text;strokeColor=none;fillColor=none;align=left;verticalAlign=top;spacingLeft=4;spacingRight=4;overflow=hidden;rotatable=0;points=[[0,0.5],[1,0.5]];portConstraint=eastwest;fontStyle=0" parent="qBcfan_NChV7agnDNDgU-2" vertex="1">
          <mxGeometry y="26" width="210" height="26" as="geometry" />
        </mxCell>
        <mxCell id="qBcfan_NChV7agnDNDgU-4" value="" style="line;strokeWidth=1;fillColor=none;align=left;verticalAlign=middle;spacingTop=-1;spacingLeft=3;spacingRight=3;rotatable=0;labelPosition=right;points=[];portConstraint=eastwest;" parent="qBcfan_NChV7agnDNDgU-2" vertex="1">
          <mxGeometry y="52" width="210" height="8" as="geometry" />
        </mxCell>
        <mxCell id="RIxWFfnTcLnGSPMHf-IP-1" value="(2) wx.login()获取code" style="text;strokeColor=none;fillColor=none;align=left;verticalAlign=top;spacingLeft=4;spacingRight=4;overflow=hidden;rotatable=0;points=[[0,0.5],[1,0.5]];portConstraint=eastwest;fontStyle=0" vertex="1" parent="qBcfan_NChV7agnDNDgU-2">
          <mxGeometry y="60" width="210" height="26" as="geometry" />
        </mxCell>
        <mxCell id="RIxWFfnTcLnGSPMHf-IP-2" value="" style="line;strokeWidth=1;fillColor=none;align=left;verticalAlign=middle;spacingTop=-1;spacingLeft=3;spacingRight=3;rotatable=0;labelPosition=right;points=[];portConstraint=eastwest;" vertex="1" parent="qBcfan_NChV7agnDNDgU-2">
          <mxGeometry y="86" width="210" height="8" as="geometry" />
        </mxCell>
        <mxCell id="qBcfan_NChV7agnDNDgU-5" value="(3) wx.request()发送code" style="text;strokeColor=none;fillColor=none;align=left;verticalAlign=top;spacingLeft=4;spacingRight=4;overflow=hidden;rotatable=0;points=[[0,0.5],[1,0.5]];portConstraint=eastwest;" parent="qBcfan_NChV7agnDNDgU-2" vertex="1">
          <mxGeometry y="94" width="210" height="26" as="geometry" />
        </mxCell>
        <mxCell id="qBcfan_NChV7agnDNDgU-6" style="edgeStyle=orthogonalEdgeStyle;rounded=0;orthogonalLoop=1;jettySize=auto;html=1;exitX=1;exitY=0.5;exitDx=0;exitDy=0;entryX=0;entryY=0.5;entryDx=0;entryDy=0;" parent="1" source="qBcfan_NChV7agnDNDgU-5" target="qBcfan_NChV7agnDNDgU-8" edge="1">
          <mxGeometry relative="1" as="geometry">
            <mxPoint x="370" y="200" as="targetPoint" />
          </mxGeometry>
        </mxCell>
        <mxCell id="qBcfan_NChV7agnDNDgU-7" value="后端服务" style="swimlane;fontStyle=1;align=center;verticalAlign=top;childLayout=stackLayout;horizontal=1;startSize=26;horizontalStack=0;resizeParent=1;resizeParentMax=0;resizeLast=0;collapsible=1;marginBottom=0;fillColor=#d5e8d4;strokeColor=#82b366;" parent="1" vertex="1">
          <mxGeometry x="250" y="200" width="210" height="110" as="geometry">
            <mxRectangle x="300" y="200" width="100" height="26" as="alternateBounds" />
          </mxGeometry>
        </mxCell>
        <mxCell id="qBcfan_NChV7agnDNDgU-8" value="(4) 请求auth.code2Session" style="text;strokeColor=none;fillColor=none;align=left;verticalAlign=top;spacingLeft=4;spacingRight=4;overflow=hidden;rotatable=0;points=[[0,0.5],[1,0.5]];portConstraint=eastwest;" parent="qBcfan_NChV7agnDNDgU-7" vertex="1">
          <mxGeometry y="26" width="210" height="24" as="geometry" />
        </mxCell>
        <mxCell id="qBcfan_NChV7agnDNDgU-9" value="" style="line;strokeWidth=1;fillColor=none;align=left;verticalAlign=middle;spacingTop=-1;spacingLeft=3;spacingRight=3;rotatable=0;labelPosition=right;points=[];portConstraint=eastwest;" parent="qBcfan_NChV7agnDNDgU-7" vertex="1">
          <mxGeometry y="50" width="210" height="8" as="geometry" />
        </mxCell>
        <mxCell id="qBcfan_NChV7agnDNDgU-10" value="(6) cache存储session_key" style="text;strokeColor=none;fillColor=none;align=left;verticalAlign=top;spacingLeft=4;spacingRight=4;overflow=hidden;rotatable=0;points=[[0,0.5],[1,0.5]];portConstraint=eastwest;" parent="qBcfan_NChV7agnDNDgU-7" vertex="1">
          <mxGeometry y="58" width="210" height="22" as="geometry" />
        </mxCell>
        <mxCell id="qBcfan_NChV7agnDNDgU-40" value="" style="line;strokeWidth=1;fillColor=none;align=left;verticalAlign=middle;spacingTop=-1;spacingLeft=3;spacingRight=3;rotatable=0;labelPosition=right;points=[];portConstraint=eastwest;" parent="qBcfan_NChV7agnDNDgU-7" vertex="1">
          <mxGeometry y="80" width="210" height="8" as="geometry" />
        </mxCell>
        <mxCell id="qBcfan_NChV7agnDNDgU-43" value="(7) 生成jwt" style="text;strokeColor=none;fillColor=none;align=left;verticalAlign=top;spacingLeft=4;spacingRight=4;overflow=hidden;rotatable=0;points=[[0,0.5],[1,0.5]];portConstraint=eastwest;" parent="qBcfan_NChV7agnDNDgU-7" vertex="1">
          <mxGeometry y="88" width="210" height="22" as="geometry" />
        </mxCell>
        <mxCell id="qBcfan_NChV7agnDNDgU-11" style="edgeStyle=orthogonalEdgeStyle;rounded=0;orthogonalLoop=1;jettySize=auto;html=1;exitX=1;exitY=0.5;exitDx=0;exitDy=0;entryX=0;entryY=0;entryDx=0;entryDy=0;" parent="1" source="qBcfan_NChV7agnDNDgU-8" target="qBcfan_NChV7agnDNDgU-12" edge="1">
          <mxGeometry relative="1" as="geometry">
            <mxPoint x="520" y="239" as="targetPoint" />
          </mxGeometry>
        </mxCell>
        <mxCell id="qBcfan_NChV7agnDNDgU-12" value="微信服务" style="swimlane;fontStyle=1;align=center;verticalAlign=top;childLayout=stackLayout;horizontal=1;startSize=26;horizontalStack=0;resizeParent=1;resizeParentMax=0;resizeLast=0;collapsible=1;marginBottom=0;fillColor=#ffe6cc;strokeColor=#d79b00;" parent="1" vertex="1">
          <mxGeometry x="530" y="260" width="190" height="50" as="geometry">
            <mxRectangle x="530" y="260" width="100" height="26" as="alternateBounds" />
          </mxGeometry>
        </mxCell>
        <mxCell id="qBcfan_NChV7agnDNDgU-13" value="(5) auth.code2Session返回数据" style="text;strokeColor=none;fillColor=none;align=left;verticalAlign=top;spacingLeft=4;spacingRight=4;overflow=hidden;rotatable=0;points=[[0,0.5],[1,0.5]];portConstraint=eastwest;fontSize=12;spacing=3;rounded=0;glass=0;shadow=0;sketch=0;" parent="qBcfan_NChV7agnDNDgU-12" vertex="1">
          <mxGeometry y="26" width="190" height="24" as="geometry" />
        </mxCell>
        <mxCell id="qBcfan_NChV7agnDNDgU-23" style="edgeStyle=orthogonalEdgeStyle;rounded=0;orthogonalLoop=1;jettySize=auto;html=1;exitX=0;exitY=0.5;exitDx=0;exitDy=0;entryX=1;entryY=0.5;entryDx=0;entryDy=0;fontSize=12;startSize=26;" parent="1" source="qBcfan_NChV7agnDNDgU-13" target="qBcfan_NChV7agnDNDgU-10" edge="1">
          <mxGeometry relative="1" as="geometry" />
        </mxCell>
        <mxCell id="qBcfan_NChV7agnDNDgU-24" value="小程序" style="swimlane;fontStyle=1;align=center;verticalAlign=top;childLayout=stackLayout;horizontal=1;startSize=26;horizontalStack=0;resizeParent=1;resizeParentMax=0;resizeLast=0;collapsible=1;marginBottom=0;rounded=0;shadow=0;glass=0;sketch=0;fontSize=12;strokeColor=#6c8ebf;fillColor=#dae8fc;html=0;" parent="1" vertex="1">
          <mxGeometry x="250" y="354" width="210" height="86" as="geometry" />
        </mxCell>
        <mxCell id="qBcfan_NChV7agnDNDgU-25" value="(8) 存储jwt" style="text;strokeColor=none;fillColor=none;align=left;verticalAlign=top;spacingLeft=4;spacingRight=4;overflow=hidden;rotatable=0;points=[[0,0.5],[1,0.5]];portConstraint=eastwest;" parent="qBcfan_NChV7agnDNDgU-24" vertex="1">
          <mxGeometry y="26" width="210" height="26" as="geometry" />
        </mxCell>
        <mxCell id="qBcfan_NChV7agnDNDgU-26" value="" style="line;strokeWidth=1;fillColor=none;align=left;verticalAlign=middle;spacingTop=-1;spacingLeft=3;spacingRight=3;rotatable=0;labelPosition=right;points=[];portConstraint=eastwest;" parent="qBcfan_NChV7agnDNDgU-24" vertex="1">
          <mxGeometry y="52" width="210" height="8" as="geometry" />
        </mxCell>
        <mxCell id="qBcfan_NChV7agnDNDgU-27" value="(9) 携带jwt请求业务接口" style="text;strokeColor=none;fillColor=none;align=left;verticalAlign=top;spacingLeft=4;spacingRight=4;overflow=hidden;rotatable=0;points=[[0,0.5],[1,0.5]];portConstraint=eastwest;" parent="qBcfan_NChV7agnDNDgU-24" vertex="1">
          <mxGeometry y="60" width="210" height="26" as="geometry" />
        </mxCell>
        <mxCell id="qBcfan_NChV7agnDNDgU-28" style="edgeStyle=orthogonalEdgeStyle;rounded=0;orthogonalLoop=1;jettySize=auto;html=1;exitX=0;exitY=0.5;exitDx=0;exitDy=0;entryX=0;entryY=0.5;entryDx=0;entryDy=0;fontSize=12;startSize=26;" parent="1" source="qBcfan_NChV7agnDNDgU-43" target="qBcfan_NChV7agnDNDgU-25" edge="1">
          <mxGeometry relative="1" as="geometry" />
        </mxCell>
        <mxCell id="qBcfan_NChV7agnDNDgU-29" value="后端服务" style="swimlane;fontStyle=1;align=center;verticalAlign=top;childLayout=stackLayout;horizontal=1;startSize=26;horizontalStack=0;resizeParent=1;resizeParentMax=0;resizeLast=0;collapsible=1;marginBottom=0;rounded=0;shadow=0;glass=0;sketch=0;fontSize=12;strokeColor=#82b366;fillColor=#d5e8d4;html=0;" parent="1" vertex="1">
          <mxGeometry x="250" y="480" width="210" height="86" as="geometry" />
        </mxCell>
        <mxCell id="qBcfan_NChV7agnDNDgU-30" value="(10)验证jwt" style="text;strokeColor=none;fillColor=none;align=left;verticalAlign=top;spacingLeft=4;spacingRight=4;overflow=hidden;rotatable=0;points=[[0,0.5],[1,0.5]];portConstraint=eastwest;" parent="qBcfan_NChV7agnDNDgU-29" vertex="1">
          <mxGeometry y="26" width="210" height="26" as="geometry" />
        </mxCell>
        <mxCell id="qBcfan_NChV7agnDNDgU-31" value="" style="line;strokeWidth=1;fillColor=none;align=left;verticalAlign=middle;spacingTop=-1;spacingLeft=3;spacingRight=3;rotatable=0;labelPosition=right;points=[];portConstraint=eastwest;" parent="qBcfan_NChV7agnDNDgU-29" vertex="1">
          <mxGeometry y="52" width="210" height="8" as="geometry" />
        </mxCell>
        <mxCell id="qBcfan_NChV7agnDNDgU-32" value="(11) 返回业务数据" style="text;strokeColor=none;fillColor=none;align=left;verticalAlign=top;spacingLeft=4;spacingRight=4;overflow=hidden;rotatable=0;points=[[0,0.5],[1,0.5]];portConstraint=eastwest;" parent="qBcfan_NChV7agnDNDgU-29" vertex="1">
          <mxGeometry y="60" width="210" height="26" as="geometry" />
        </mxCell>
        <mxCell id="qBcfan_NChV7agnDNDgU-34" style="edgeStyle=orthogonalEdgeStyle;rounded=0;orthogonalLoop=1;jettySize=auto;html=1;exitX=1;exitY=0.5;exitDx=0;exitDy=0;entryX=1;entryY=0.5;entryDx=0;entryDy=0;fontSize=12;startSize=26;" parent="1" source="qBcfan_NChV7agnDNDgU-27" target="qBcfan_NChV7agnDNDgU-30" edge="1">
          <mxGeometry relative="1" as="geometry" />
        </mxCell>
        <mxCell id="RIxWFfnTcLnGSPMHf-IP-3" style="edgeStyle=orthogonalEdgeStyle;rounded=0;orthogonalLoop=1;jettySize=auto;html=1;exitX=0;exitY=0.5;exitDx=0;exitDy=0;entryX=0;entryY=0.5;entryDx=0;entryDy=0;" edge="1" parent="1" source="qBcfan_NChV7agnDNDgU-3" target="qBcfan_NChV7agnDNDgU-27">
          <mxGeometry relative="1" as="geometry">
            <Array as="points">
              <mxPoint x="200" y="99" />
              <mxPoint x="200" y="427" />
            </Array>
          </mxGeometry>
        </mxCell>
        <mxCell id="RIxWFfnTcLnGSPMHf-IP-4" value="已登录" style="edgeLabel;html=1;align=center;verticalAlign=middle;resizable=0;points=[];" vertex="1" connectable="0" parent="RIxWFfnTcLnGSPMHf-IP-3">
          <mxGeometry x="-0.2011" y="-2" relative="1" as="geometry">
            <mxPoint as="offset" />
          </mxGeometry>
        </mxCell>
      </root>
    </mxGraphModel>
  </diagram>
</mxfile>
